<mxfile host="app.diagrams.net" agent="Mozilla/5.0 (Windows NT 10.0; Win64; x64) AppleWebKit/537.36 (KHTML, like Gecko) Chrome/132.0.0.0 Safari/537.36 OPR/117.0.0.0" version="26.1.1">
  <diagram name="Página-1" id="GKUDrd7ifhnAibqqnuLx">
    <mxGraphModel dx="2040" dy="1039" grid="1" gridSize="10" guides="1" tooltips="1" connect="1" arrows="1" fold="1" page="1" pageScale="1" pageWidth="827" pageHeight="1169" math="0" shadow="0">
      <root>
        <mxCell id="0" />
        <mxCell id="1" parent="0" />
        <mxCell id="7FJbyt8qEXuLGrOfKjN--1" value="" style="swimlane;startSize=0;" vertex="1" parent="1">
          <mxGeometry x="170" y="160" width="520" height="730" as="geometry">
            <mxRectangle x="170" y="160" width="50" height="40" as="alternateBounds" />
          </mxGeometry>
        </mxCell>
        <mxCell id="7FJbyt8qEXuLGrOfKjN--9" value="Sistema de reservas de área comum" style="text;html=1;align=center;verticalAlign=middle;resizable=0;points=[];autosize=1;strokeColor=none;fillColor=none;" vertex="1" parent="7FJbyt8qEXuLGrOfKjN--1">
          <mxGeometry x="150" y="13" width="220" height="30" as="geometry" />
        </mxCell>
        <mxCell id="7FJbyt8qEXuLGrOfKjN--21" value="Faz Login" style="ellipse;whiteSpace=wrap;html=1;" vertex="1" parent="7FJbyt8qEXuLGrOfKjN--1">
          <mxGeometry x="190" y="80" width="140" height="65" as="geometry" />
        </mxCell>
        <mxCell id="7FJbyt8qEXuLGrOfKjN--23" value="Verificar senha" style="ellipse;whiteSpace=wrap;html=1;" vertex="1" parent="7FJbyt8qEXuLGrOfKjN--1">
          <mxGeometry x="420" y="60" width="80" height="40" as="geometry" />
        </mxCell>
        <mxCell id="7FJbyt8qEXuLGrOfKjN--24" value="Exibe erro de login" style="ellipse;whiteSpace=wrap;html=1;" vertex="1" parent="7FJbyt8qEXuLGrOfKjN--1">
          <mxGeometry x="410" y="150" width="90" height="50" as="geometry" />
        </mxCell>
        <mxCell id="7FJbyt8qEXuLGrOfKjN--28" value="&lt;font style=&quot;font-size: 9px;&quot;&gt;&amp;lt;&amp;lt;Extends&amp;gt;&amp;gt;&lt;/font&gt;" style="endArrow=block;endSize=16;endFill=0;html=1;rounded=0;exitX=0.217;exitY=0.091;exitDx=0;exitDy=0;entryX=0.929;entryY=0.745;entryDx=0;entryDy=0;exitPerimeter=0;entryPerimeter=0;" edge="1" parent="7FJbyt8qEXuLGrOfKjN--1" source="7FJbyt8qEXuLGrOfKjN--24" target="7FJbyt8qEXuLGrOfKjN--21">
          <mxGeometry width="160" relative="1" as="geometry">
            <mxPoint x="80" y="390" as="sourcePoint" />
            <mxPoint x="240" y="390" as="targetPoint" />
          </mxGeometry>
        </mxCell>
        <mxCell id="7FJbyt8qEXuLGrOfKjN--30" value="&lt;font style=&quot;font-size: 9px;&quot;&gt;&amp;lt;&amp;lt;Include&amp;gt;&amp;gt;&lt;/font&gt;" style="endArrow=block;endSize=16;endFill=0;html=1;rounded=0;exitX=0.967;exitY=0.318;exitDx=0;exitDy=0;exitPerimeter=0;" edge="1" parent="7FJbyt8qEXuLGrOfKjN--1" source="7FJbyt8qEXuLGrOfKjN--21" target="7FJbyt8qEXuLGrOfKjN--23">
          <mxGeometry width="160" relative="1" as="geometry">
            <mxPoint x="390" y="165" as="sourcePoint" />
            <mxPoint x="340" y="148" as="targetPoint" />
          </mxGeometry>
        </mxCell>
        <mxCell id="7FJbyt8qEXuLGrOfKjN--31" style="edgeStyle=orthogonalEdgeStyle;rounded=0;orthogonalLoop=1;jettySize=auto;html=1;entryX=0;entryY=0.5;entryDx=0;entryDy=0;" edge="1" parent="7FJbyt8qEXuLGrOfKjN--1" source="7FJbyt8qEXuLGrOfKjN--2" target="7FJbyt8qEXuLGrOfKjN--21">
          <mxGeometry relative="1" as="geometry">
            <Array as="points">
              <mxPoint x="-130" y="113" />
              <mxPoint x="45" y="113" />
            </Array>
          </mxGeometry>
        </mxCell>
        <mxCell id="7FJbyt8qEXuLGrOfKjN--33" style="edgeStyle=orthogonalEdgeStyle;rounded=0;orthogonalLoop=1;jettySize=auto;html=1;entryX=0;entryY=0.5;entryDx=0;entryDy=0;" edge="1" parent="7FJbyt8qEXuLGrOfKjN--1" source="7FJbyt8qEXuLGrOfKjN--2" target="7FJbyt8qEXuLGrOfKjN--10">
          <mxGeometry relative="1" as="geometry">
            <Array as="points">
              <mxPoint x="-130" y="213" />
              <mxPoint x="45" y="213" />
            </Array>
          </mxGeometry>
        </mxCell>
        <mxCell id="7FJbyt8qEXuLGrOfKjN--36" style="edgeStyle=orthogonalEdgeStyle;rounded=0;orthogonalLoop=1;jettySize=auto;html=1;" edge="1" parent="7FJbyt8qEXuLGrOfKjN--1">
          <mxGeometry relative="1" as="geometry">
            <mxPoint x="-100" y="299.58" as="sourcePoint" />
            <mxPoint x="190" y="299.58" as="targetPoint" />
            <Array as="points">
              <mxPoint x="-20" y="299.58" />
              <mxPoint x="-20" y="299.58" />
            </Array>
          </mxGeometry>
        </mxCell>
        <mxCell id="7FJbyt8qEXuLGrOfKjN--37" style="edgeStyle=orthogonalEdgeStyle;rounded=0;orthogonalLoop=1;jettySize=auto;html=1;" edge="1" parent="7FJbyt8qEXuLGrOfKjN--1" source="7FJbyt8qEXuLGrOfKjN--2" target="7FJbyt8qEXuLGrOfKjN--14">
          <mxGeometry relative="1" as="geometry">
            <Array as="points">
              <mxPoint x="45" y="300" />
              <mxPoint x="45" y="390" />
            </Array>
          </mxGeometry>
        </mxCell>
        <mxCell id="7FJbyt8qEXuLGrOfKjN--38" style="edgeStyle=orthogonalEdgeStyle;rounded=0;orthogonalLoop=1;jettySize=auto;html=1;entryX=0;entryY=0.5;entryDx=0;entryDy=0;" edge="1" parent="7FJbyt8qEXuLGrOfKjN--1" source="7FJbyt8qEXuLGrOfKjN--2" target="7FJbyt8qEXuLGrOfKjN--16">
          <mxGeometry relative="1" as="geometry">
            <Array as="points">
              <mxPoint x="45" y="300" />
              <mxPoint x="45" y="480" />
            </Array>
          </mxGeometry>
        </mxCell>
        <mxCell id="7FJbyt8qEXuLGrOfKjN--2" value="Morador" style="shape=umlActor;verticalLabelPosition=bottom;verticalAlign=top;html=1;" vertex="1" parent="7FJbyt8qEXuLGrOfKjN--1">
          <mxGeometry x="-160" y="250" width="60" height="130" as="geometry" />
        </mxCell>
        <mxCell id="7FJbyt8qEXuLGrOfKjN--10" value="Verifica Disponibilidade" style="ellipse;whiteSpace=wrap;html=1;" vertex="1" parent="7FJbyt8qEXuLGrOfKjN--1">
          <mxGeometry x="190" y="180" width="140" height="65" as="geometry" />
        </mxCell>
        <mxCell id="7FJbyt8qEXuLGrOfKjN--12" value="Reserva Área Comum" style="ellipse;whiteSpace=wrap;html=1;" vertex="1" parent="7FJbyt8qEXuLGrOfKjN--1">
          <mxGeometry x="190" y="265" width="140" height="70" as="geometry" />
        </mxCell>
        <mxCell id="7FJbyt8qEXuLGrOfKjN--14" value="Modifica Reserva" style="ellipse;whiteSpace=wrap;html=1;" vertex="1" parent="7FJbyt8qEXuLGrOfKjN--1">
          <mxGeometry x="190" y="355" width="140" height="70" as="geometry" />
        </mxCell>
        <mxCell id="7FJbyt8qEXuLGrOfKjN--16" value="Cancela Reserva" style="ellipse;whiteSpace=wrap;html=1;" vertex="1" parent="7FJbyt8qEXuLGrOfKjN--1">
          <mxGeometry x="190" y="445" width="140" height="70" as="geometry" />
        </mxCell>
        <mxCell id="7FJbyt8qEXuLGrOfKjN--17" value="Confirma Reserva" style="ellipse;whiteSpace=wrap;html=1;" vertex="1" parent="7FJbyt8qEXuLGrOfKjN--1">
          <mxGeometry x="190" y="540" width="140" height="70" as="geometry" />
        </mxCell>
        <mxCell id="7FJbyt8qEXuLGrOfKjN--18" value="Gerencia conflito de reserva" style="ellipse;whiteSpace=wrap;html=1;" vertex="1" parent="7FJbyt8qEXuLGrOfKjN--1">
          <mxGeometry x="190" y="640" width="140" height="70" as="geometry" />
        </mxCell>
        <mxCell id="7FJbyt8qEXuLGrOfKjN--39" style="edgeStyle=orthogonalEdgeStyle;rounded=0;orthogonalLoop=1;jettySize=auto;html=1;entryX=1;entryY=0.5;entryDx=0;entryDy=0;" edge="1" parent="1" source="7FJbyt8qEXuLGrOfKjN--6" target="7FJbyt8qEXuLGrOfKjN--16">
          <mxGeometry relative="1" as="geometry" />
        </mxCell>
        <mxCell id="7FJbyt8qEXuLGrOfKjN--40" style="edgeStyle=orthogonalEdgeStyle;rounded=0;orthogonalLoop=1;jettySize=auto;html=1;entryX=1;entryY=0.5;entryDx=0;entryDy=0;" edge="1" parent="1" source="7FJbyt8qEXuLGrOfKjN--6" target="7FJbyt8qEXuLGrOfKjN--17">
          <mxGeometry relative="1" as="geometry" />
        </mxCell>
        <mxCell id="7FJbyt8qEXuLGrOfKjN--41" style="edgeStyle=orthogonalEdgeStyle;rounded=0;orthogonalLoop=1;jettySize=auto;html=1;entryX=1;entryY=0.5;entryDx=0;entryDy=0;" edge="1" parent="1" source="7FJbyt8qEXuLGrOfKjN--6" target="7FJbyt8qEXuLGrOfKjN--18">
          <mxGeometry relative="1" as="geometry" />
        </mxCell>
        <mxCell id="7FJbyt8qEXuLGrOfKjN--42" style="edgeStyle=orthogonalEdgeStyle;rounded=0;orthogonalLoop=1;jettySize=auto;html=1;entryX=1;entryY=1;entryDx=0;entryDy=0;" edge="1" parent="1" source="7FJbyt8qEXuLGrOfKjN--6" target="7FJbyt8qEXuLGrOfKjN--10">
          <mxGeometry relative="1" as="geometry">
            <Array as="points">
              <mxPoint x="520" y="475" />
              <mxPoint x="520" y="395" />
            </Array>
          </mxGeometry>
        </mxCell>
        <mxCell id="7FJbyt8qEXuLGrOfKjN--6" value="Administrador" style="shape=umlActor;verticalLabelPosition=bottom;verticalAlign=top;html=1;" vertex="1" parent="1">
          <mxGeometry x="730" y="410" width="60" height="130" as="geometry" />
        </mxCell>
        <mxCell id="7FJbyt8qEXuLGrOfKjN--32" style="edgeStyle=orthogonalEdgeStyle;rounded=0;orthogonalLoop=1;jettySize=auto;html=1;entryX=0.101;entryY=0.851;entryDx=0;entryDy=0;entryPerimeter=0;" edge="1" parent="1" source="7FJbyt8qEXuLGrOfKjN--6" target="7FJbyt8qEXuLGrOfKjN--21">
          <mxGeometry relative="1" as="geometry">
            <Array as="points">
              <mxPoint x="760" y="380" />
              <mxPoint x="520" y="380" />
              <mxPoint x="520" y="320" />
              <mxPoint x="374" y="320" />
            </Array>
          </mxGeometry>
        </mxCell>
      </root>
    </mxGraphModel>
  </diagram>
</mxfile>
